<?xml version="1.0" encoding="utf-8"?>
<!-- Generator: Adobe Illustrator 16.0.0, SVG Export Plug-In . SVG Version: 6.00 Build 0)  -->
<!DOCTYPE svg PUBLIC "-//W3C//DTD SVG 1.1//EN" "http://www.w3.org/Graphics/SVG/1.1/DTD/svg11.dtd">
<svg version="1.1" id="Layer_1" xmlns="http://www.w3.org/2000/svg" xmlns:xlink="http://www.w3.org/1999/xlink" x="0px" y="0px"
	 width="152px" height="100px" viewBox="0 0 152 100" enable-background="new 0 0 152 100" xml:space="preserve">
<g>
	<path fill-rule="evenodd" clip-rule="evenodd" fill="#00A75A" d="M1,46.904c0.692-3.56,1.322-7.122,2.735-10.509
		c3.779-9.061,10.281-15.787,18.235-21.202C32.663,7.913,44.684,4.191,57.408,2.619c4.586-0.566,9.221-0.794,14.409-0.37
		c-2.371,0.888-4.369,0.741-6.283,1.045c-15.865,2.522-29.504,9.129-39.58,21.975c-5.522,7.041-8.566,15.165-8.646,24.165
		c-0.093,10.469,3.626,19.65,10.522,27.434C38.769,89.213,52.861,95.27,69.047,96.941c0.738,0.077,1.468,0.239,2.194,0.696
		c-2.989,0-5.987,0.148-8.966-0.03c-6.518-0.39-12.958-1.377-19.219-3.281C28.162,89.795,15.158,82.51,6.542,68.948
		c-2.794-4.398-4.45-9.233-5.206-14.382C1.255,54.014,1.114,53.47,1,52.921C1,50.916,1,48.909,1,46.904z"/>
	<path fill-rule="evenodd" clip-rule="evenodd" fill="#F07F01" d="M80.628,2.455c0.569-0.479,1.083-0.34,1.55-0.351
		c16-0.364,31.098,2.943,44.956,11.172c8.113,4.818,14.836,11.063,19.386,19.436c2.854,5.254,4.456,10.898,4.48,16.882
		c0.035,8.342-2.636,15.83-7.632,22.501c-9.06,12.097-21.641,18.696-35.786,22.742c-6.879,1.968-13.996,2.683-21.121,3.111
		c-1.855,0.111-3.737-0.207-5.702-0.618c0.589-0.131,1.173-0.329,1.769-0.381c10.546-0.906,20.338-4.134,29.286-9.763
		c9.828-6.182,17.306-14.401,20.862-25.657c2.519-7.97,2.452-15.951-0.322-23.965c-3.944-11.393-11.546-19.553-21.702-25.61
		c-6.726-4.011-13.918-6.694-21.658-8.078C86.262,3.387,83.442,3.266,80.628,2.455z"/>
	<path fill-rule="evenodd" clip-rule="evenodd" fill="#151515" d="M76.061,83.575c-3.222,0.101-6.39-0.273-9.39-1.485
		c-3.929-1.589-6.839-7.02-6.102-11.514c0.811-4.949,2.071-9.801,3.566-14.588c0.392-1.255,0.895-2.472,0.685-3.838
		c-0.137-0.897,0.297-1.414,1.182-1.605c0.917-0.199,1.826-0.441,2.738-0.664c2.029-0.495,2.442-1.527,1.241-3.339
		c-0.488-0.736-0.965-1.463-1.271-2.289c-1.106-2.98-0.126-6.069,2.457-7.776c2.352-1.554,5.676-1.232,7.826,0.756
		c2.307,2.134,2.879,5.643,1.335,8.248c-0.223,0.376-0.538,0.701-0.738,1.086c-0.78,1.507-0.378,2.88,1.197,3.21
		c4.081,0.855,6.155,3.313,7.311,7.292c1.665,5.728,3.581,11.354,3.241,17.429c-0.211,3.78-2.052,6.743-4.91,7.535
		c-2.526,0.7-5.089,1.343-7.742,1.429C77.812,83.489,76.937,83.536,76.061,83.575z M82.793,68.183
		c-0.505,0.065-0.696,0.145-0.849,0.098c-0.295-0.091-0.581-0.231-0.847-0.39c-2.744-1.646-4.877-3.92-6.558-6.604
		c-1.661-2.651-3.197-5.38-4.823-8.052c-0.337-0.554-0.693-1.528-1.444-1.203c-0.901,0.391-0.133,1.215,0.076,1.757
		c1.157,3,2.885,5.681,4.779,8.264c0.396,0.54,1.062,1.015,0.821,2.062c-2.765-2.031-4.7-4.613-6.813-7.184
		c-2.386,6.596-2.769,12.616,2.927,17.738c-1.96-0.599-3.289-1.909-4.886-2.903c-0.093,2.413,0.685,4.288,2.389,5.048
		c4.734,2.109,9.64,3.245,14.774,1.595c2.725-0.877,4.728-2.519,4.878-6.077c-1.308,2.091-2.922,2.259-4.835,1.661
		c-0.877-0.272-1.861-0.194-2.792-0.312c-0.96-0.12-2.008,0.15-3.093-0.753c2.586-1.008,5.594-0.495,7.748-2.729
		c-1.053-0.449-2.064-0.355-2.841-1.198c0.421-0.146,0.642-0.25,0.873-0.297c4.237-0.874,5.593-2.715,4.52-6.135
		c-0.128-0.41-0.104-0.868-0.141-1.305c-0.404-4.886-2.725-8.435-7.248-10.485c-0.542-0.246-0.929-0.248-1.346,0.157
		c-1.006,0.977-2.237,1.392-3.607,1.242c-1.111-0.121-1.177,0.285-0.79,1.153c0.866,1.944,1.64,3.931,2.554,5.851
		C77.805,62.512,79.758,65.605,82.793,68.183z"/>
	<path fill-rule="evenodd" clip-rule="evenodd" fill="#151515" d="M101.04,28.754c2.74,0.022,5.082,1.764,5.899,4.387
		c0.019,0.06,0.039,0.12,0.051,0.181c0.389,2.059,3.471,2.721,2.909,5.135c-0.593,2.546,1.423,3.516,2.546,5.037
		c4.051,5.484,7.423,11.297,8.858,18.057c1.007,4.749-0.804,7.91-5.395,9.467c-4.48,1.52-9.179,1.902-13.813,2.599
		c-0.537,0.081-1.142,0.012-1.661-0.154c-3.008-0.967-7.411-6.688-7.678-9.899c-0.105-1.263,0.321-2.249,1.546-2.7
		c0.79-0.292,1.009-0.81,1.026-1.574c0.067-3.172,1.025-6.158,1.983-9.139c0.263-0.818,0.263-1.413-0.107-2.345
		c-0.746-1.881-0.291-4.061,0.614-5.804c0.731-1.411,0.319-1.898-0.68-2.704c-1.967-1.586-2.575-4.399-1.65-6.834
		C96.359,30.171,98.511,28.734,101.04,28.754z M99.577,70.032c0.946-6.478,3.062-12.649,4.344-19.01
		c0.082-0.403-0.019-1.026,0.522-1.086c0.674-0.076,0.675,0.62,0.813,1.059c0.344,1.092,0.403,2.22,0.202,3.345
		c-0.266,1.477-0.586,2.944-0.855,4.42c-0.526,2.885-1.676,5.647-1.676,8.64c0.001,1.296,0.381,2.244,1.837,2.321
		c3.34,0.177,6.652-0.032,9.802-1.236c3.072-1.175,4.265-3.409,3.814-6.683c-0.285-2.076-1.052-3.981-1.931-5.858
		c-2.155-4.597-5.282-8.652-7.387-13.275c-0.281-0.616-0.627-0.893-1.308-0.597c-1.401,0.609-2.771,0.403-4.278-0.602
		c1.069,2.746,2.435,4.841,3.886,6.877c1.458,2.045,3.206,3.849,5.268,5.518c-0.743,0.343-1.077,0.127-1.388-0.059
		c-3.301-1.975-6.382-4.196-8.526-7.494c-0.511-0.785-1.061-1.556-1.68-2.257c-0.946-1.073-1.718-0.855-2.188,0.464
		c-0.251,0.706-0.459,1.428-0.669,2.148c-0.023,0.077,0.068,0.188,0.106,0.28c0.42-0.138,0.381-1.034,1.091-0.666
		c0.03,0.083,0.076,0.143,0.069,0.197c-0.703,5.381-2.021,10.722-1.061,16.212c0.068,0.388,0.021,0.816-0.419,0.932
		c-1.472,0.386-0.947,1.374-0.681,2.24C97.749,67.363,98.605,68.672,99.577,70.032z"/>
	<path fill-rule="evenodd" clip-rule="evenodd" fill="#151515" d="M54.868,46.296c-1.253,4.537,1.905,8.706,1.823,13.312
		c-0.011,0.647,0.381,1.003,0.97,1.229c1.278,0.489,1.649,1.557,1.399,2.751c-0.927,4.426-3.492,7.669-7.421,9.844
		c-0.739,0.409-1.608,0.294-2.403,0.161c-4.132-0.692-8.322-1.065-12.365-2.263c-4.725-1.398-7.727-4.687-6.24-10.151
		c1.989-7.311,5.39-13.863,10.486-19.486c0.726-0.801,1.234-1.401,0.916-2.584c-0.325-1.205,0.085-2.46,1.026-3.258
		c1.149-0.975,1.797-2.121,2.297-3.52c0.81-2.265,3.104-3.606,5.648-3.574c2.519,0.032,4.285,1.246,5.297,3.515
		c1.001,2.245,0.525,5.198-1.265,6.775c-1.17,1.031-1.884,1.751-0.732,3.36C54.991,43.365,54.862,44.812,54.868,46.296z
		 M53.929,47.473c-0.117-0.52-0.184-0.821-0.253-1.123c-0.252-1.091-0.315-2.541-1.475-2.845c-1.292-0.339-1.824,1.091-2.422,1.994
		c-1.788,2.702-4.001,4.984-6.688,6.768c-1.138,0.755-2.226,1.712-3.833,1.728c0.268-0.525,0.731-0.821,1.143-1.177
		c2.675-2.318,4.773-5.106,6.545-8.151c1.297-2.231,1.291-2.228-1.178-2.264c-0.369-0.005-0.773-0.044-1.097-0.2
		c-1.037-0.499-1.568-0.135-2.015,0.864c-1.255,2.806-2.943,5.375-4.523,8.003c-1.97,3.278-3.885,6.589-4.564,10.434
		c-0.629,3.563,0.926,6.176,4.377,7.244c2.84,0.879,5.777,1.073,8.729,0.995c1.817-0.047,2.473-0.744,2.352-2.613
		c-0.08-1.241-0.365-2.472-0.612-3.697c-0.607-3.003-1.599-5.925-1.889-8.996c-0.148-1.573-0.135-3.101,0.894-4.45
		c1.862,6.65,3.754,13.221,4.872,20.301c1.15-1.55,1.848-2.937,2.398-4.387c0.339-0.895,0.941-1.955-0.755-2.278
		c-0.548-0.104-0.427-0.7-0.35-1.123c0.885-4.857-0.181-9.592-0.89-14.349c-0.095-0.635-0.434-1.288,0.007-1.9
		C53.438,46.373,53.251,47.132,53.929,47.473z"/>
	<path fill-rule="evenodd" clip-rule="evenodd" fill="#151515" d="M78.086,28.869c3.198-0.865,3.661-0.496,4.856,2.769
		c0.771,2.105,1.941,4.062,2.877,6.11c1.203,2.631,1.821,5.339,0.793,8.194c-0.817,2.269-2.137,3.169-4.75,3.069
		c3.724-2.81,2.555-6.366,1.674-9.775c-0.719-2.782-1.938-5.432-2.113-8.356c-0.083-1.375-0.942-1.398-1.815-0.812
		c-1.662,1.115-3.236,2.36-4.86,3.532c-0.709,0.512-1.389,1.222-2.188,1.424c-3.443,0.87-5.046,3.719-6.912,6.252
		c-1.602,2.174-1.001,3.981,1.461,5.108c0.596,0.273,1.37,0.168,1.823,0.804c-2.077,1.023-5.19,0.402-6.488-1.278
		c-0.6-0.778-0.555-1.657-0.267-2.51c1.719-5.099,4.493-9.633,7.577-13.995c0.244-0.344,0.522-0.787,1.048-0.622
		c0.553,0.173,0.662,0.705,0.771,1.2c0.027,0.12,0.014,0.249,0.021,0.374c0.046,0.835-0.756,1.958,0.109,2.434
		c0.877,0.481,1.666-0.602,2.446-1.064c0.857-0.508,1.631-1.158,2.44-1.746C77.265,29.845,77.739,29.442,78.086,28.869z"/>
	<path fill-rule="evenodd" clip-rule="evenodd" fill="#151515" d="M78.086,28.869c-0.347,0.573-0.822,0.976-1.495,1.112
		c-4.688,0.844-6.666-4.134-5.436-7.896c0.552-1.689,2.659-2.838,4.373-2.595c2.046,0.291,3.625,1.869,3.803,3.827
		C79.512,25.298,79.303,27.198,78.086,28.869z"/>
</g>
</svg>
